<svg width="224" height="39" viewBox="0 0 224 39" fill="none" xmlns="http://www.w3.org/2000/svg">
<g clip-path="url(#clip0_471_439)">
<path d="M0 19.3451C0 8.32908 7.06385 0 17.8876 0C22.1036 0 25.6623 1.24288 28.2554 3.25921C31.4073 5.69131 33.2358 9.30818 33.6919 13.4481H24.6966C24.2406 10.1397 21.6967 7.60481 17.8385 7.60481C11.9415 7.60481 9.14723 12.621 9.14723 19.3451C9.14723 26.0692 12.5003 31.0362 17.8876 31.0362C21.9024 31.0362 24.5446 28.4476 24.9515 24.8799H33.9467C33.6919 28.5505 32.0645 31.9125 29.5787 34.3446C26.7845 37.0852 23.0737 38.5337 17.9413 38.5337C7.26503 38.5337 0 30.4148 0 19.3451Z" fill="black"/>
<path d="M60.0293 11.2261H68.0052V14.8474H68.1572C70.0886 12.004 72.5788 10.4526 76.1867 10.4526C81.8781 10.4526 85.2312 14.5881 85.2312 20.4851V37.7066H76.9468V22.1885C76.9468 19.3942 75.5743 17.4807 72.8828 17.4807C70.1914 17.4807 68.3092 19.81 68.3092 23.0692V37.7066H60.0248V11.2261H60.0293Z" fill="black"/>
<path d="M102.278 10.4483C98.724 10.4483 96.4886 11.9505 94.8612 14.2217H94.7092V2.65576H86.4338V37.7067H94.356V34.3447H94.4544C96.0817 37.0853 98.876 38.5294 102.332 38.5294C109.034 38.5294 113.406 33.2538 113.406 24.4598C113.406 16.5018 109.038 10.4439 102.278 10.4439V10.4483ZM99.9892 31.859C96.5869 31.859 94.4544 28.8635 94.4544 24.4643C94.4544 20.065 96.2382 16.8595 99.8908 16.8595C103.248 16.8595 105.028 19.8638 105.028 24.4151C105.028 28.9664 103.244 31.859 99.9892 31.859Z" fill="black"/>
<path d="M114.305 24.5179C114.305 16.5509 119.893 10.502 128.227 10.502C136.56 10.502 142.1 16.5509 142.1 24.5179C142.1 32.4848 136.609 38.5338 128.227 38.5338C119.844 38.5338 114.305 32.4804 114.305 24.5179ZM133.717 24.5179C133.717 19.7073 131.785 16.4481 128.177 16.4481C124.57 16.4481 122.687 19.7073 122.687 24.5179C122.687 29.3284 124.57 32.534 128.177 32.534C131.785 32.534 133.717 29.3284 133.717 24.5179Z" fill="black"/>
<path d="M167.056 20.2259C167.056 16.9131 165.987 14.32 163.752 12.6703C161.869 11.2262 159.227 10.502 155.32 10.502C147.442 10.502 143.731 14.6866 143.526 19.6H151.153C151.408 17.3825 152.727 16.1933 155.369 16.1933C157.864 16.1933 158.932 17.3288 158.932 19.0367C158.932 20.8474 157.206 21.366 152.32 21.9829C146.937 22.7072 142.359 24.4598 142.359 30.3076C142.359 35.525 146.07 38.3818 151.251 38.3818C155.168 38.3818 157.457 36.9824 158.977 34.7605H159.075C159.285 36.1017 159.536 37.1344 159.942 37.7067H167.06L167.051 20.2304L167.056 20.2259ZM159.133 28.242C159.133 31.0855 156.996 33.0034 153.894 33.0034C151.868 33.0034 150.339 32.1674 150.339 30.0572C150.339 27.947 151.658 27.2048 154.864 26.4806C156.545 26.0692 158.065 25.6535 159.133 25.0901V28.242Z" fill="black"/>
<path d="M58.7864 20.2259C58.7864 16.9131 57.7179 14.32 55.4825 12.6703C53.6003 11.2262 50.9581 10.502 47.0506 10.502C39.1731 10.502 35.4623 14.6866 35.2567 19.6H42.8838C43.1387 17.3825 44.4575 16.1933 47.0998 16.1933C49.5945 16.1933 50.663 17.3288 50.663 19.0367C50.663 20.8474 48.9373 21.366 44.0507 21.9829C38.6679 22.7072 34.0898 24.4598 34.0898 30.3076C34.0898 35.525 37.8005 38.3818 42.9822 38.3818C46.8986 38.3818 49.1876 36.9824 50.7077 34.7605H50.8061C51.0162 36.1017 51.2666 37.1344 51.6734 37.7067H58.7909L58.7819 20.2304L58.7864 20.2259ZM50.8642 28.242C50.8642 31.0855 48.7271 33.0034 45.6244 33.0034C43.5992 33.0034 42.0701 32.1674 42.0701 30.0572C42.0701 27.947 43.389 27.2048 46.5946 26.4806C48.2756 26.0692 49.7957 25.6535 50.8642 25.0901V28.242Z" fill="black"/>
<path d="M204.27 2.65576V14.2217H204.127C202.598 11.9952 200.519 10.4483 196.853 10.4483C190.152 10.4483 185.475 16.1933 185.475 24.4643C185.475 33.3164 190.196 38.5338 196.853 38.5338C200.265 38.5338 202.951 36.8797 204.534 34.1391H204.632V37.7067H212.555V2.65576H204.27ZM198.986 31.859C195.785 31.859 193.858 28.9664 193.858 24.357C193.858 19.7476 195.785 16.8103 199.084 16.8103C202.692 16.8103 204.476 20.0203 204.476 24.4598C204.476 28.8993 202.442 31.8545 198.986 31.8545V31.859Z" fill="black"/>
<path d="M168.486 11.2263H176.413V15.3662H176.565C178.393 12.2098 180.53 10.8149 183.678 10.8149C184.438 10.8149 184.948 10.8641 185.305 11.0206V18.2633H185.1C180.016 17.539 176.766 20.0739 176.766 25.8144V37.7112H168.482V11.2263H168.486Z" fill="black"/>
<path d="M223.343 29.2212H214.844V37.7202H223.343V29.2212Z" fill="black"/>
<path d="M219.091 18.7373C216.587 18.7373 214.553 20.7715 214.553 23.2752C214.553 25.7788 216.587 27.813 219.091 27.813C221.595 27.813 223.629 25.7788 223.629 23.2752C223.629 20.7715 221.59 18.7373 219.091 18.7373ZM219.091 26.9814C217.043 26.9814 215.38 25.3183 215.38 23.2752C215.38 21.232 217.043 19.5689 219.091 19.5689C221.139 19.5689 222.797 21.232 222.797 23.2752C222.797 25.3183 221.134 26.9814 219.091 26.9814Z" fill="black"/>
<path d="M217.321 21.0845H219.332C220.473 21.0845 221.045 21.545 221.045 22.4615C221.045 22.7655 220.978 23.0114 220.848 23.2036C220.718 23.3959 220.522 23.5434 220.267 23.6507L221.295 25.4703H220.352L219.453 23.8295H218.143V25.4703H217.325V21.0845H217.321ZM220.191 22.4525C220.191 22.2156 220.119 22.0457 219.976 21.9429C219.833 21.84 219.601 21.7909 219.279 21.7909H218.134V23.1232H219.265C219.574 23.1232 219.806 23.0695 219.958 22.9622C220.11 22.8549 220.186 22.685 220.186 22.457L220.191 22.4525Z" fill="black"/>
</g>
<defs>
<clipPath id="clip0_471_439">
<rect width="223.629" height="38.5337" fill="white"/>
</clipPath>
</defs>
</svg>
