<svg width="99" height="99" viewBox="0 0 99 99" fill="none" xmlns="http://www.w3.org/2000/svg">
<path d="M49.1156 98.5601C22.0009 98.5601 0 76.4258 0 49.28C0 22.1343 22.0604 0 49.1156 0C76.1708 0 98.2312 22.1343 98.2312 49.28C98.2312 76.4258 76.1708 98.5601 49.1156 98.5601ZM49.1156 3.87797C24.201 3.87797 3.92449 24.2224 3.92449 49.2204C3.92449 74.2184 24.201 94.5628 49.1156 94.5628C74.0302 94.5628 94.3067 74.2184 94.3067 49.2204C94.3067 24.2224 74.0302 3.87797 49.1156 3.87797Z" fill="#010101"/>
<path d="M72.6627 54.3513V53.7547C71.8896 44.3283 67.4895 38.4218 63.6244 33.1716C60.0567 28.3391 56.9647 24.1628 56.9647 18.0177C56.9647 17.5404 56.6674 17.0631 56.2511 16.8245C55.8349 16.5859 55.2998 16.6455 54.8835 16.9438C49.0562 21.1201 44.2398 28.1601 42.5154 34.8421C41.3262 39.4957 41.2073 44.7459 41.1478 48.2062C35.7962 47.0727 34.5475 39.0184 34.5475 38.9588C34.4881 38.5411 34.2502 38.1832 33.8934 38.0042C33.5367 37.8252 33.061 37.7655 32.7042 38.0042C32.4069 38.1235 25.8066 41.5242 25.3904 55.0076C25.3904 55.4252 25.3904 55.9025 25.3904 56.3798C25.3904 69.4456 36.0341 80.1249 49.0562 80.1249C62.0784 80.1249 72.7221 69.4456 72.7221 56.3798C72.7221 55.7235 72.7221 55.1269 72.6032 54.4706M49.0562 77.4401C44.7155 77.4401 41.1478 73.6815 41.1478 69.0279C41.1478 68.849 41.1478 68.7296 41.1478 68.491C41.1478 66.5222 41.564 65.2096 41.9803 64.3147C42.7533 65.9256 44.1209 67.4767 46.321 67.4767C47.0345 67.4767 47.6292 66.8801 47.6292 66.1642C47.6292 64.2551 47.6292 62.1073 48.1643 60.1981C48.5806 58.4679 49.5914 56.6184 50.8401 55.1269C51.3753 57.0361 52.505 58.5872 53.5754 60.1384C55.1214 62.2862 56.6674 64.5534 56.9647 68.3717C56.9647 68.6103 56.9647 68.849 56.9647 69.0876C56.9647 73.7412 53.4564 77.4998 49.0562 77.4998M57.3809 75.7696C58.7486 73.9201 59.581 71.5934 59.581 69.0876C59.581 68.7893 59.581 68.491 59.581 67.954C59.2837 63.6584 57.3809 60.9737 55.7754 58.6469C54.3484 56.6184 53.1591 54.9479 53.1591 52.5018C53.1591 52.0245 52.8618 51.5472 52.4456 51.3086C51.9699 51.07 51.4942 51.1296 51.078 51.4279C48.5806 53.3371 46.4399 56.5588 45.7264 59.6015C45.3696 61.1527 45.1912 62.8829 45.1912 64.2551C44.2993 63.2408 44.002 61.451 44.002 61.451C43.9425 61.0334 43.7047 60.6754 43.2884 60.4367C42.9317 60.2578 42.456 60.2578 42.0992 60.4367C41.7424 60.6157 38.8883 62.2862 38.7099 68.4313C38.7099 68.67 38.7099 68.849 38.7099 69.0279C38.7099 71.5337 39.5423 73.8605 40.91 75.71C33.4177 72.4883 28.1851 65.0306 28.1851 56.3201C28.1851 55.9025 28.1851 55.5445 28.1851 55.0672C28.4229 47.192 30.9203 43.2544 32.5853 41.5242C33.7151 45.6408 36.7476 51.0103 42.6344 51.0103C43.3479 51.0103 43.9425 50.4137 43.9425 49.6978C43.9425 45.2828 44.0614 40.2116 45.1912 35.4984C46.4994 30.1886 50.186 24.5208 54.5862 20.6428C55.2998 26.3106 58.3918 30.4272 61.6027 34.7825C65.4083 39.973 69.3922 45.2828 70.0463 53.9933V54.6496C70.1652 55.1866 70.1652 55.7235 70.1652 56.3201C70.1652 64.971 64.9326 72.4286 57.4404 75.71" fill="#010101"/>
</svg>
