<svg width="21" height="20" viewBox="0 0 21 20" fill="none" xmlns="http://www.w3.org/2000/svg">
<path fill-rule="evenodd" clip-rule="evenodd" d="M1.75684 6.99724C1.75684 7.45748 2.12994 7.83058 2.59017 7.83058H3.96095C4.31951 9.03533 5.43558 9.91391 6.75684 9.91391C8.07809 9.91391 9.19417 9.03533 9.55275 7.83058H17.5902C18.0504 7.83058 18.4235 7.45748 18.4235 6.99724C18.4235 6.53701 18.0504 6.16391 17.5902 6.16391H9.55042C9.19042 4.98657 8.08025 4.16699 6.75684 4.16699C5.43342 4.16699 4.32329 4.98657 3.96321 6.16391H2.59017C2.12994 6.16391 1.75684 6.53701 1.75684 6.99724ZM1.75684 12.8306C1.75684 13.2908 2.12994 13.6639 2.59017 13.6639H10.6276C10.9862 14.8687 12.1023 15.7472 13.4235 15.7472C14.7448 15.7472 15.8608 14.8687 16.2194 13.6639H17.5902C18.0504 13.6639 18.4235 13.2908 18.4235 12.8306C18.4235 12.3703 18.0504 11.9972 17.5902 11.9972H16.2194C15.8608 10.7925 14.7448 9.91391 13.4235 9.91391C12.1023 9.91391 10.9862 10.7925 10.6276 11.9972H2.59017C2.12994 11.9972 1.75684 12.3703 1.75684 12.8306ZM13.4235 14.0806C14.1138 14.0806 14.6735 13.5209 14.6735 12.8306C14.6735 12.1402 14.1138 11.5806 13.4235 11.5806C12.7332 11.5806 12.1735 12.1402 12.1735 12.8306C12.1735 13.5209 12.7332 14.0806 13.4235 14.0806ZM8.00684 6.99724C8.00684 7.6876 7.44719 8.24724 6.75684 8.24724C6.06648 8.24724 5.50684 7.6876 5.50684 6.99724C5.50684 6.33473 6.03836 5.83366 6.75684 5.83366C7.47531 5.83366 8.00684 6.33473 8.00684 6.99724Z" fill="black"/>
</svg>
